<svg width="10" height="11" viewBox="0 0 10 11" fill="none" xmlns="http://www.w3.org/2000/svg">
<path id="Vector" d="M7 4H8.11136C8.27404 4 8.36866 4.18387 8.27411 4.31625L6 7.5M4 4H5.74384C5.87396 4 5.96943 4.12228 5.93787 4.24851L5 8M1.5 4H2.84914C2.93844 4 3.01691 4.0592 3.04144 4.14506L4 7.5M6.5 1.5H7.39296C7.45983 1.5 7.52228 1.53342 7.55937 1.58906L8.29271 2.68906C8.38131 2.82197 8.28604 3 8.1263 3H7M4.5 1.5H5.35585C5.44193 1.5 5.51836 1.55509 5.54559 1.63675L5.91225 2.73675C5.95542 2.86626 5.85903 3 5.72252 3H4M2.5 1.5H3.22251C3.35903 1.5 3.45542 1.63374 3.41225 1.76325L3.04558 2.86325C3.01836 2.94491 2.94193 3 2.85585 3H1.5M2.10704 0.5C2.04017 0.5 1.97772 0.53342 1.94063 0.58906L0.0765721 3.38514C0.0304805 3.45428 0.0319387 3.54471 0.0802354 3.61233L4.83725 10.2722C4.91702 10.3838 5.08298 10.3838 5.16275 10.2722L9.91976 3.61233C9.96806 3.54471 9.96952 3.45428 9.92343 3.38514L8.05937 0.58906C8.02228 0.53342 7.95983 0.5 7.89296 0.5H2.10704Z" fill="white" style="fill:white;fill-opacity:1;"/>
</svg>
