<svg width="16" height="17" viewBox="0 0 16 17" fill="none" xmlns="http://www.w3.org/2000/svg">
<g id="icons8-gift-card 1">
<path id="Vector" d="M2.83333 2.83333C1.82674 2.83333 1 3.66007 1 4.66666V12.3333C1 13.3399 1.82674 14.1667 2.83333 14.1667H13.1667C14.1733 14.1667 15 13.3399 15 12.3333V4.66666C15 3.66007 14.1733 2.83333 13.1667 2.83333H2.83333ZM2.83333 3.83333H6V7.29296L5.18685 6.47981C5.14024 6.43182 5.08448 6.39366 5.02286 6.36761C4.96125 6.34155 4.89503 6.32812 4.82812 6.32812C4.72862 6.32814 4.63138 6.35786 4.54885 6.41345C4.46633 6.46905 4.40227 6.54801 4.36486 6.64022C4.32746 6.73243 4.31842 6.8337 4.3389 6.93108C4.35938 7.02846 4.40844 7.11751 4.47982 7.18684L5.29297 8H2V4.66666C2 4.20059 2.36726 3.83333 2.83333 3.83333ZM7 3.83333H13.1667C13.6327 3.83333 14 4.20059 14 4.66666V8H7.70703L8.52018 7.18684C8.56817 7.14077 8.60648 7.08559 8.63287 7.02452C8.65926 6.96346 8.6732 6.89774 8.67388 6.83122C8.67456 6.7647 8.66195 6.69872 8.63681 6.63713C8.61166 6.57554 8.57448 6.51959 8.52744 6.47255C8.48041 6.42551 8.42445 6.38833 8.36287 6.36319C8.30128 6.33804 8.23529 6.32544 8.16877 6.32612C8.10225 6.32679 8.03654 6.34073 7.97547 6.36713C7.91441 6.39352 7.85922 6.43183 7.81315 6.47981L7 7.29296V3.83333ZM2 9H5.29297L4.47982 9.81315C4.43183 9.85922 4.39352 9.9144 4.36713 9.97547C4.34074 10.0365 4.3268 10.1022 4.32612 10.1688C4.32544 10.2353 4.33805 10.3013 4.36319 10.3629C4.38834 10.4244 4.42552 10.4804 4.47256 10.5274C4.5196 10.5745 4.57555 10.6117 4.63713 10.6368C4.69872 10.6619 4.76471 10.6746 4.83123 10.6739C4.89775 10.6732 4.96346 10.6593 5.02453 10.6329C5.08559 10.6065 5.14078 10.5682 5.18685 10.5202L6 9.70703V13.1667H2.83333C2.36726 13.1667 2 12.7994 2 12.3333V9ZM7.70703 9H14V12.3333C14 12.7994 13.6327 13.1667 13.1667 13.1667H7V9.70703L7.81315 10.5202C7.85922 10.5682 7.91441 10.6065 7.97547 10.6329C8.03654 10.6593 8.10225 10.6732 8.16877 10.6739C8.23529 10.6746 8.30128 10.6619 8.36287 10.6368C8.42445 10.6117 8.48041 10.5745 8.52744 10.5274C8.57448 10.4804 8.61166 10.4244 8.63681 10.3629C8.66195 10.3013 8.67456 10.2353 8.67388 10.1688C8.6732 10.1022 8.65926 10.0365 8.63287 9.97547C8.60648 9.9144 8.56817 9.85922 8.52018 9.81315L7.70703 9Z" fill="#65B398" style="fill:#65B398;fill:color(display-p3 0.3961 0.7020 0.5961);fill-opacity:1;"/>
</g>
</svg>
