<svg width="16" height="16" viewBox="0 0 16 16" fill="none" xmlns="http://www.w3.org/2000/svg">
<path d="M12.1099 9.53446C11.6621 9.43865 11.3079 9.64544 10.9942 9.82603C10.673 10.0121 10.0621 10.505 9.712 10.3788C7.91942 9.64475 6.23345 8.08421 5.50362 6.29415C5.37499 5.93848 5.86819 5.32708 6.05392 5.00381C6.23414 4.69088 6.43775 4.33521 6.34489 3.88648C6.26097 3.48325 5.17551 2.10952 4.79168 1.73386C4.53854 1.48572 4.27922 1.34924 4.01301 1.32718C3.01216 1.28444 1.89438 2.61269 1.69833 2.93045C1.20719 3.60801 1.20995 4.5096 1.70659 5.6028C2.90348 8.53914 7.43034 12.9705 10.3937 14.2057C10.9405 14.4601 11.4406 14.5876 11.8898 14.5876C12.3293 14.5876 12.7207 14.4656 13.0571 14.2236C13.3109 14.0782 14.7011 12.9113 14.6647 11.889C14.6426 11.6285 14.5058 11.368 14.2595 11.1157C13.8846 10.7304 12.5123 9.61855 12.1099 9.53446Z" fill="#269CFE"/>
</svg>
