<svg width="17" height="16" viewBox="0 0 17 16" fill="none" xmlns="http://www.w3.org/2000/svg">
<g id="open_in_new_FILL1_wght700_GRAD200_opsz48">
<path id="Vector" d="M3.66657 14.35C3.25351 14.35 2.89747 14.2005 2.59844 13.9014C2.29941 13.6024 2.1499 13.2464 2.1499 12.8333V3.16663C2.1499 2.74899 2.29941 2.38902 2.59844 2.08673C2.89747 1.78445 3.25351 1.6333 3.66657 1.6333H8.11657V3.16663H3.66657V12.8333H13.3332V8.3833H14.8666V12.8333C14.8666 13.2464 14.7154 13.6024 14.4131 13.9014C14.1108 14.2005 13.7509 14.35 13.3332 14.35H3.66657ZM7.26657 10.3L6.21657 9.2333L12.2832 3.16663H9.11657V1.6333H14.8666V7.3833H13.3332V4.2333L7.26657 10.3Z" fill="#007AFF"/>
</g>
</svg>
