<svg width="64" height="64" viewBox="0 0 64 64" fill="none" xmlns="http://www.w3.org/2000/svg">
<path d="M56.6083 32L58.2669 26.88C59.5069 23.048 57.7816 18.88 54.1949 17.048L49.4029 14.6L46.9549 9.808C45.1229 6.22133 40.9549 4.49333 37.1229 5.736L32.0003 7.392L26.8803 5.73333C23.0483 4.49333 18.8803 6.21867 17.0483 9.80533L14.5976 14.5973L9.80561 17.048C6.21894 18.88 4.49361 23.048 5.73361 26.88L7.39228 32L5.73361 37.12C4.49361 40.952 6.21894 45.12 9.80561 46.952L14.5976 49.4L17.0456 54.192C18.8776 57.7787 23.0456 59.5067 26.8776 58.264L32.0003 56.608L37.1203 58.2667C40.9523 59.5067 45.1203 57.7813 46.9523 54.1947L49.4003 49.4027L54.1923 46.9547C57.7789 45.1227 59.5069 40.9547 58.2643 37.1227L56.6083 32ZM27.4483 41.8853L21.3336 35.7707C20.2936 34.7307 20.2936 33.04 21.3336 32C22.3736 30.96 24.0643 30.96 25.1043 32L29.3336 36.2293L41.5629 24C42.6029 22.96 44.2936 22.96 45.3336 24C46.3736 25.04 46.3736 26.7307 45.3336 27.7707L31.2189 41.8853C30.1789 42.9253 28.4883 42.9253 27.4483 41.8853Z" fill="#2BC666"/>
</svg>
