<svg width="20" height="21" viewBox="0 0 20 21" fill="none" xmlns="http://www.w3.org/2000/svg">
<path d="M10 0.0617676L11.9172 1.91894L14.4504 1.07755L15.372 3.58266L18.0194 3.9237L17.7628 6.58059L20 8.0365L18.616 10.3189L20 12.6014L17.7628 14.0573L18.0194 16.7142L15.372 17.0552L14.4504 19.5603L11.9172 18.7189L10 20.5761L8.08275 18.7189L5.54958 19.5603L4.628 17.0552L1.98062 16.7142L2.23723 14.0573L0 12.6014L1.38398 10.3189L0 8.0365L2.23723 6.58059L1.98062 3.9237L4.628 3.58266L5.54958 1.07755L8.08275 1.91894L10 0.0617676Z" fill="#4CE27F"/>
<path fill-rule="evenodd" clip-rule="evenodd" d="M14.3315 8.06588L9.21043 14.0349L5.75488 11.1708L6.66645 10.071L9.04075 12.0389L13.2474 7.13574L14.3315 8.06588Z" fill="white"/>
</svg>
